<?xml version="1.0" encoding="utf-8"?>
<!-- Generator: Adobe Illustrator 15.0.0, SVG Export Plug-In . SVG Version: 6.00 Build 0)  -->
<!DOCTYPE svg PUBLIC "-//W3C//DTD SVG 1.1//EN" "http://www.w3.org/Graphics/SVG/1.1/DTD/svg11.dtd">
<svg version="1.1" id="Layer_1" xmlns="http://www.w3.org/2000/svg" xmlns:xlink="http://www.w3.org/1999/xlink" x="0px" y="0px"
	 width="492px" height="800px" viewBox="0 0 492 800" enable-background="new 0 0 492 800" xml:space="preserve">
<g>
	<rect x="4.5" y="162.5" fill="none" stroke="#000000" stroke-width="3" stroke-miterlimit="10" width="200" height="32"/>
</g>
<g>
	<rect x="4.5" y="114.5" fill="none" stroke="#000000" stroke-width="3" stroke-miterlimit="10" width="200" height="32"/>
</g>
<g>
	<rect x="4.5" y="66.5" fill="none" stroke="#000000" stroke-width="3" stroke-miterlimit="10" width="200" height="32"/>
</g>
<rect x="171.5" y="209.5" fill="none" stroke="#000000" stroke-width="3" stroke-miterlimit="10" width="33" height="32"/>
<g>
	<path d="M4.71,30.229h2.186l1.092,4.258c0.28,0.995,0.462,1.919,0.729,2.927h0.056c0.28-1.008,0.476-1.933,0.742-2.927l1.079-4.258
		h2.101l-2.746,9.133H7.47L4.71,30.229z"/>
	<path d="M13.937,37.625h2.129v-5.659h-2.129v-1.737h6.332v1.737h-2.129v5.659h2.129v1.737h-6.332V37.625z"/>
	<path d="M22.28,30.229h3.236c1.933,0,3.53,0.672,3.53,2.843c0,1.345-0.658,2.199-1.625,2.634l2.06,3.656h-2.312l-1.751-3.292
		h-1.079v3.292H22.28V30.229z M25.348,34.431c1.092,0,1.667-0.462,1.667-1.359s-0.574-1.205-1.667-1.205h-1.009v2.563H25.348z"/>
	<path d="M32.865,31.966h-2.731v-1.737h7.536v1.737h-2.731v7.396h-2.073V31.966z"/>
	<path d="M38.996,35.846v-5.617h2.059v5.827c0,1.092,0.406,1.695,1.275,1.695c0.868,0,1.289-0.603,1.289-1.695v-5.827h1.989v5.617
		c0,2.368-1.064,3.684-3.277,3.684C40.103,39.53,38.996,38.213,38.996,35.846z"/>
	<path d="M49.469,30.229h2.465l2.843,9.133h-2.185l-0.546-2.171h-2.759l-0.561,2.171h-2.101L49.469,30.229z M49.707,35.58h1.919
		l-0.21-0.84c-0.238-0.911-0.518-1.975-0.728-2.941h-0.056c-0.224,0.966-0.477,2.031-0.714,2.941L49.707,35.58z"/>
	<path d="M56.398,30.229h2.059v7.396h4.062v1.737h-6.121V30.229z"/>
	<path d="M72.68,30.229h2.521c2.661,0,4.398,1.387,4.398,4.524s-1.737,4.608-4.272,4.608H72.68V30.229z M75.089,37.695
		c1.429,0,2.396-0.756,2.396-2.941s-0.967-2.857-2.396-2.857h-0.336v5.799H75.089z"/>
	<path d="M80.631,34.753c0-3.054,1.499-4.692,3.67-4.692c2.171,0,3.67,1.639,3.67,4.692c0,3.124-1.499,4.776-3.67,4.776
		C82.13,39.53,80.631,37.877,80.631,34.753z M85.856,34.753c0-1.891-0.603-2.914-1.555-2.914s-1.555,1.022-1.555,2.914
		c0,1.975,0.602,2.998,1.555,2.998S85.856,36.729,85.856,34.753z"/>
	<path d="M89.312,30.229h2.157l0.896,3.236l0.308,1.26h0.056l0.308-1.26l0.896-3.236h2.157v9.133h-1.737v-2.83
		c0-1.022,0.182-3.25,0.266-4.23h-0.042l-0.7,2.437l-0.7,2.199h-1.009l-0.714-2.199l-0.658-2.437h-0.042
		c0.098,0.98,0.266,3.208,0.266,4.23v2.83h-1.709V30.229z"/>
	<path d="M105.831,34.753c0-3.054,1.499-4.692,3.67-4.692c2.171,0,3.67,1.639,3.67,4.692c0,3.124-1.499,4.776-3.67,4.776
		C107.33,39.53,105.831,37.877,105.831,34.753z M111.056,34.753c0-1.891-0.603-2.914-1.555-2.914c-0.952,0-1.555,1.022-1.555,2.914
		c0,1.975,0.603,2.998,1.555,2.998C110.454,37.751,111.056,36.729,111.056,34.753z"/>
	<path d="M114.623,30.229h2.115l1.919,4.538l0.785,2.018h0.056c-0.098-0.967-0.294-2.241-0.294-3.32v-3.236h1.975v9.133h-2.115
		l-1.919-4.552l-0.784-1.989h-0.056c0.098,1.008,0.294,2.227,0.294,3.306v3.236h-1.975V30.229z"/>
	<path d="M131.199,38.213l1.191-1.415c0.687,0.561,1.541,0.953,2.423,0.953c0.882,0,1.289-0.336,1.289-0.798
		c0-0.645-0.546-0.813-1.415-1.177l-1.177-0.504c-1.022-0.378-1.947-1.163-1.947-2.493c0-1.513,1.373-2.717,3.348-2.717
		c1.106,0,2.213,0.42,3.04,1.205l-1.051,1.303c-0.63-0.462-1.205-0.729-2.101-0.729c-0.687,0-1.148,0.294-1.148,0.826
		c0,0.546,0.616,0.756,1.499,1.079l1.107,0.477c1.205,0.448,1.961,1.19,1.961,2.479c0,1.513-1.275,2.83-3.544,2.83
		C133.44,39.53,132.18,39.082,131.199,38.213z"/>
	<path d="M140.187,30.229h6.051v1.737h-3.978v1.835h3.376v1.723h-3.376v2.101h4.118v1.737h-6.191V30.229z"/>
	<path d="M148.279,30.229h3.236c1.933,0,3.53,0.672,3.53,2.843c0,1.345-0.658,2.199-1.625,2.634l2.059,3.656h-2.311l-1.751-3.292
		h-1.079v3.292h-2.059V30.229z M151.347,34.431c1.092,0,1.667-0.462,1.667-1.359s-0.575-1.205-1.667-1.205h-1.009v2.563H151.347z"/>
	<path d="M155.908,30.229h2.186l1.092,4.258c0.28,0.995,0.462,1.919,0.729,2.927h0.056c0.28-1.008,0.476-1.933,0.742-2.927
		l1.079-4.258h2.101l-2.746,9.133h-2.479L155.908,30.229z"/>
	<path d="M165.387,30.229h6.051v1.737h-3.978v1.835h3.376v1.723h-3.376v2.101h4.118v1.737h-6.191V30.229z"/>
	<path d="M173.479,30.229h3.236c1.933,0,3.53,0.672,3.53,2.843c0,1.345-0.658,2.199-1.625,2.634l2.06,3.656h-2.312l-1.751-3.292
		h-1.079v3.292h-2.059V30.229z M176.546,34.431c1.092,0,1.667-0.462,1.667-1.359s-0.574-1.205-1.667-1.205h-1.009v2.563H176.546z"/>
</g>
<g>
	<path d="M187.313,226.881h-4.176v-2.88h4.176v-4.32h2.977v4.32h4.176v2.88h-4.176v4.32h-2.977V226.881z"/>
</g>
<g>
	<rect x="277.5" y="162.5" fill="none" stroke="#000000" stroke-width="3" stroke-miterlimit="10" width="200" height="32"/>
</g>
<g>
	<rect x="277.5" y="114.5" fill="none" stroke="#000000" stroke-width="3" stroke-miterlimit="10" width="200" height="32"/>
</g>
<g>
	<rect x="277.5" y="66.5" fill="none" stroke="#000000" stroke-width="3" stroke-miterlimit="10" width="200" height="32"/>
</g>
<rect x="444.5" y="209.5" fill="none" stroke="#000000" stroke-width="3" stroke-miterlimit="10" width="33" height="32"/>
<g>
	<path d="M278.537,30.229h3.066c1.892,0,3.349,0.518,3.349,2.269c0,0.813-0.49,1.695-1.569,1.975v0.056
		c1.303,0.238,1.989,0.924,1.989,2.143c0,1.863-1.526,2.689-3.502,2.689h-3.333V30.229z M281.506,33.899
		c1.009,0,1.43-0.42,1.43-1.121c0-0.672-0.449-0.938-1.416-0.938h-0.924v2.059H281.506z M281.702,37.751
		c1.12,0,1.653-0.406,1.653-1.233c0-0.798-0.519-1.134-1.653-1.134h-1.106v2.367H281.702z"/>
	<path d="M286.881,30.229h3.235c1.933,0,3.53,0.672,3.53,2.843c0,1.345-0.658,2.199-1.625,2.634l2.059,3.656h-2.311l-1.752-3.292
		h-1.078v3.292h-2.059V30.229z M289.948,34.431c1.093,0,1.667-0.462,1.667-1.359s-0.574-1.205-1.667-1.205h-1.009v2.563H289.948z"/>
	<path d="M294.832,34.753c0-3.054,1.499-4.692,3.67-4.692c2.172,0,3.67,1.639,3.67,4.692c0,3.124-1.498,4.776-3.67,4.776
		C296.331,39.53,294.832,37.877,294.832,34.753z M300.057,34.753c0-1.891-0.602-2.914-1.555-2.914c-0.952,0-1.555,1.022-1.555,2.914
		c0,1.975,0.603,2.998,1.555,2.998C299.455,37.751,300.057,36.729,300.057,34.753z"/>
	<path d="M302.756,30.229h2.143l0.281,4.86c0.014,0.785,0.027,1.471,0.041,2.297h0.057c0.126-0.827,0.294-1.527,0.448-2.297
		l0.616-2.549h1.316l0.574,2.549c0.154,0.756,0.309,1.457,0.449,2.297h0.055c0.015-0.84,0.029-1.541,0.057-2.297l0.252-4.86h2.004
		l-1.121,9.133h-2.213l-0.533-2.83c-0.111-0.574-0.224-1.19-0.252-1.737h-0.041c-0.057,0.546-0.127,1.163-0.238,1.737l-0.533,2.83
		h-2.143L302.756,30.229z"/>
	<path d="M311.8,38.213l1.19-1.415c0.687,0.561,1.541,0.953,2.424,0.953s1.289-0.336,1.289-0.798c0-0.645-0.547-0.813-1.415-1.177
		l-1.177-0.504c-1.022-0.378-1.947-1.163-1.947-2.493c0-1.513,1.373-2.717,3.348-2.717c1.107,0,2.213,0.42,3.04,1.205l-1.051,1.303
		c-0.63-0.462-1.204-0.729-2.101-0.729c-0.688,0-1.148,0.294-1.148,0.826c0,0.546,0.615,0.756,1.498,1.079l1.107,0.477
		c1.204,0.448,1.961,1.19,1.961,2.479c0,1.513-1.275,2.83-3.545,2.83C314.041,39.53,312.78,39.082,311.8,38.213z"/>
	<path d="M320.788,30.229h6.052v1.737h-3.979v1.835h3.376v1.723h-3.376v2.101h4.118v1.737h-6.191V30.229z"/>
	<path d="M328.88,30.229h3.235c1.934,0,3.53,0.672,3.53,2.843c0,1.345-0.658,2.199-1.625,2.634l2.06,3.656h-2.312l-1.751-3.292
		h-1.078v3.292h-2.06V30.229z M331.947,34.431c1.093,0,1.667-0.462,1.667-1.359s-0.574-1.205-1.667-1.205h-1.008v2.563H331.947z"/>
	<path d="M345.68,30.229h2.521c2.661,0,4.398,1.387,4.398,4.524s-1.737,4.608-4.272,4.608h-2.647V30.229z M348.089,37.695
		c1.429,0,2.396-0.756,2.396-2.941s-0.967-2.857-2.396-2.857h-0.336v5.799H348.089z"/>
	<path d="M353.631,34.753c0-3.054,1.5-4.692,3.67-4.692c2.172,0,3.67,1.639,3.67,4.692c0,3.124-1.498,4.776-3.67,4.776
		C355.131,39.53,353.631,37.877,353.631,34.753z M358.856,34.753c0-1.891-0.603-2.914-1.556-2.914c-0.952,0-1.555,1.022-1.555,2.914
		c0,1.975,0.603,2.998,1.555,2.998C358.254,37.751,358.856,36.729,358.856,34.753z"/>
	<path d="M362.312,30.229h2.157l0.896,3.236l0.309,1.26h0.056l0.308-1.26l0.896-3.236h2.158v9.133h-1.738v-2.83
		c0-1.022,0.183-3.25,0.267-4.23h-0.042l-0.7,2.437l-0.7,2.199h-1.009l-0.714-2.199l-0.658-2.437h-0.043
		c0.099,0.98,0.267,3.208,0.267,4.23v2.83h-1.709V30.229z"/>
</g>
<g>
	<path d="M460.313,226.881h-4.176v-2.88h4.176v-4.32h2.977v4.32h4.176v2.88h-4.176v4.32h-2.977V226.881z"/>
</g>
<g>
	<path d="M421.359,261.388c0-2.312,1.709-3.642,3.543-3.642c1.836,0,3.545,1.331,3.545,3.642c0,2.311-1.709,3.642-3.545,3.642
		C423.068,265.03,421.359,263.699,421.359,261.388z M426.332,261.388c0-1.205-0.477-1.975-1.43-1.975
		c-0.952,0-1.428,0.77-1.428,1.975c0,1.205,0.476,1.975,1.428,1.975C425.855,263.363,426.332,262.593,426.332,261.388z"/>
	<path d="M430.109,257.914h1.681l0.154,0.924H432c0.603-0.588,1.359-1.092,2.396-1.092c1.569,0,2.269,1.079,2.269,2.83v4.286h-2.059
		v-4.02c0-0.925-0.266-1.345-1.022-1.345c-0.561,0-0.925,0.252-1.415,0.728v4.637h-2.059V257.914z"/>
	<path d="M438.257,260.352c0-3.026,1.919-4.791,4.356-4.791c1.162,0,2.115,0.56,2.731,1.163l-1.135,1.274
		c-0.435-0.392-0.925-0.658-1.597-0.658c-1.289,0-2.241,1.106-2.241,2.941c0,1.877,0.952,2.97,2.325,2.97
		c0.658,0,1.205-0.322,1.652-0.813l1.135,1.247c-0.742,0.883-1.765,1.345-2.997,1.345
		C440.218,265.03,438.257,263.419,438.257,260.352z"/>
	<path d="M448.786,262.145v-5.477h-2.186v-1.625h4.245v7.186c0,0.854,0.546,1.134,1.134,1.134c0.322,0,0.659-0.056,1.079-0.224
		l0.462,1.513c-0.729,0.238-1.219,0.378-2.087,0.378C449.696,265.03,448.786,263.909,448.786,262.145z"/>
	<path d="M458.194,259.525h-2.788v-1.611h4.848v6.948h-2.06V259.525z M457.76,255.575c0-0.756,0.574-1.289,1.373-1.289
		s1.373,0.532,1.373,1.289s-0.574,1.247-1.373,1.247S457.76,256.331,457.76,255.575z"/>
	<path d="M463.639,261.388c0-2.312,1.877-3.642,4.02-3.642c1.094,0,2.018,0.392,2.605,0.938l-0.952,1.274
		c-0.532-0.378-1.022-0.546-1.54-0.546c-1.191,0-2.018,0.77-2.018,1.975c0,1.205,0.799,1.975,1.947,1.975
		c0.729,0,1.33-0.308,1.835-0.658l0.826,1.303c-0.841,0.7-1.905,1.022-2.857,1.022C465.32,265.03,463.639,263.699,463.639,261.388z"
		/>
	<path d="M472.164,255.042h2.06v5.673h0.056l2.55-2.801h2.255l-2.646,2.83l2.857,4.118h-2.228l-1.821-2.844l-1.022,1.093v1.751
		h-2.06V255.042z"/>
</g>
<line fill="none" stroke="#000000" stroke-width="3" stroke-miterlimit="10" x1="240.5" y1="65" x2="240.5" y2="759"/>
<g>
	<g>
		<polyline fill="none" stroke="#000000" stroke-width="3" stroke-miterlimit="10" points="476.5,277 476.5,323.5 288,323.5 		"/>
		<g>
			<polygon points="290,316.425 277.047,323.903 290,331.382 			"/>
		</g>
	</g>
</g>
<g>
	<g>
		<g>
			<polyline fill="none" stroke="#000000" stroke-width="3" stroke-miterlimit="10" points="204.5,495.861 204.5,497.861 
				202.5,497.861 			"/>
			
				<line fill="none" stroke="#000000" stroke-width="3" stroke-miterlimit="10" stroke-dasharray="4,4" x1="198" y1="497.5" x2="8" y2="497.5"/>
			<polyline fill="none" stroke="#000000" stroke-width="3" stroke-miterlimit="10" points="6.5,497.861 4.5,497.861 4.5,495.861 
							"/>
			
				<line fill="none" stroke="#000000" stroke-width="3" stroke-miterlimit="10" stroke-dasharray="4,4" x1="4.5" y1="492" x2="4.5" y2="470"/>
			<polyline fill="none" stroke="#000000" stroke-width="3" stroke-miterlimit="10" points="4.5,467.861 4.5,465.861 6.5,465.861 
							"/>
			
				<line fill="none" stroke="#000000" stroke-width="3" stroke-miterlimit="10" stroke-dasharray="4,4" x1="10" y1="465.5" x2="200" y2="465.5"/>
			<polyline fill="none" stroke="#000000" stroke-width="3" stroke-miterlimit="10" points="202.5,465.861 204.5,465.861 
				204.5,467.861 			"/>
			
				<line fill="none" stroke="#000000" stroke-width="3" stroke-miterlimit="10" stroke-dasharray="4,4" x1="204.5" y1="472" x2="204.5" y2="494"/>
		</g>
	</g>
</g>
<g>
	<rect x="4.5" y="417.5" fill="none" stroke="#000000" stroke-width="3" stroke-miterlimit="10" width="200" height="32"/>
</g>
<g>
	<rect x="4.5" y="369.5" fill="none" stroke="#000000" stroke-width="3" stroke-miterlimit="10" width="200" height="32"/>
</g>
<g>
	<rect x="4.5" y="321.5" fill="none" stroke="#000000" stroke-width="3" stroke-miterlimit="10" width="200" height="32"/>
</g>
<rect x="171.5" y="512.5" fill="none" stroke="#000000" stroke-width="3" stroke-miterlimit="10" width="33" height="32"/>
<g>
	<path d="M187.313,529.881h-4.176v-2.88h4.176v-4.32h2.977v4.32h4.176v2.88h-4.176v4.32h-2.977V529.881z"/>
</g>
<g>
	<g>
		<polyline fill="none" stroke="#000000" stroke-width="3" stroke-miterlimit="10" points="4.5,559 4.5,758.5 194,758.5 		"/>
		<g>
			<polygon points="192,766.299 204.953,758.82 192,751.341 			"/>
		</g>
	</g>
</g>
<g>
	<rect x="22" y="560.361" fill="none" width="204.5" height="211"/>
	<path d="M25.264,570.314c0-0.994,0.14-1.512,0.14-2.395c0-0.49-0.406-1.008-1.919-1.037v-1.203
		c1.513-0.029,1.919-0.547,1.919-1.037c0-0.869-0.14-1.416-0.14-2.396c0-1.512,0.813-1.988,2.605-1.988h1.079v1.092h-0.574
		c-1.163,0-1.429,0.197-1.429,0.98c0,0.744,0.07,1.457,0.07,2.285c0,1.064-0.406,1.471-1.401,1.639v0.055
		c0.995,0.168,1.401,0.574,1.401,1.639c0,0.855-0.07,1.527-0.07,2.283c0,0.785,0.266,0.98,1.429,0.98h0.574v1.094h-1.079
		C26.076,572.305,25.264,571.828,25.264,570.314z"/>
	<path d="M41.237,584.09v-2.451h-1.751v-1.525l1.849-0.086l0.267-2.129h1.695v2.129h2.941v1.611h-2.941v2.438
		c0,1.051,0.448,1.457,1.471,1.457c0.518,0,0.953-0.111,1.373-0.252l0.364,1.484c-0.616,0.182-1.345,0.379-2.269,0.379
		C42.021,587.145,41.237,585.912,41.237,584.09z"/>
	<path d="M48.138,589.553l0.364-1.568c0.182,0.057,0.364,0.084,0.546,0.084c0.798,0,1.232-0.363,1.457-0.91l0.14-0.363l-3.012-6.768
		h2.045l1.163,2.984c0.252,0.658,0.476,1.359,0.7,2.088h0.056c0.182-0.688,0.42-1.4,0.63-2.088l1.022-2.984h1.947l-2.746,7.02
		c-0.672,1.75-1.499,2.646-3.25,2.646C48.796,589.693,48.433,589.637,48.138,589.553z"/>
	<path d="M56.608,580.027h1.681l0.154,0.701h0.042c0.56-0.504,1.331-0.869,2.073-0.869c1.737,0,2.788,1.387,2.788,3.531
		c0,2.381-1.457,3.754-3.012,3.754c-0.616,0-1.218-0.266-1.709-0.756h-0.056l0.098,1.133v2.031h-2.059V580.027z M61.23,583.418
		c0-1.246-0.406-1.877-1.274-1.877c-0.448,0-0.854,0.195-1.289,0.645v2.816c0.392,0.336,0.84,0.461,1.19,0.461
		C60.628,585.463,61.23,584.848,61.23,583.418z"/>
	<path d="M64.77,583.502c0-2.283,1.751-3.643,3.614-3.643c2.143,0,3.278,1.443,3.278,3.334c0,0.379-0.07,0.758-0.098,0.926h-4.734
		c0.196,1.008,0.938,1.457,2.073,1.457c0.63,0,1.176-0.17,1.793-0.49l0.686,1.246c-0.798,0.504-1.835,0.813-2.759,0.813
		C66.451,587.145,64.77,585.813,64.77,583.502z M66.857,582.732h2.97c-0.098-0.855-0.574-1.303-1.373-1.303
		C67.642,581.43,67.067,581.863,66.857,582.732z"/>
	<path d="M74.977,580.98c0-0.924,0.659-1.652,1.625-1.652c0.967,0,1.625,0.729,1.625,1.652c0,0.926-0.658,1.639-1.625,1.639
		C75.635,582.619,74.977,581.906,74.977,580.98z M74.977,585.506c0-0.926,0.659-1.654,1.625-1.654c0.967,0,1.625,0.729,1.625,1.654
		c0,0.924-0.658,1.639-1.625,1.639C75.635,587.145,74.977,586.43,74.977,585.506z"/>
	<path d="M89.914,580.672c0-1.525,0.813-2.717,2.451-3.459l0.533,1.092c-0.967,0.449-1.499,1.064-1.569,1.961
		c0.098-0.027,0.196-0.041,0.294-0.041c0.742,0,1.275,0.504,1.275,1.275c0,0.854-0.561,1.414-1.345,1.414
		C90.516,582.914,89.914,582.088,89.914,580.672z M93.64,580.672c0-1.525,0.813-2.717,2.451-3.459l0.532,1.092
		c-0.966,0.449-1.499,1.064-1.569,1.961c0.098-0.027,0.196-0.041,0.294-0.041c0.742,0,1.274,0.504,1.274,1.275
		c0,0.854-0.56,1.414-1.345,1.414C94.242,582.914,93.64,582.088,93.64,580.672z"/>
	<path d="M101.493,581.639h-2.788v-1.611h4.847v6.949h-2.059V581.639z M101.059,577.689c0-0.756,0.574-1.289,1.373-1.289
		s1.373,0.533,1.373,1.289s-0.575,1.246-1.373,1.246S101.059,578.445,101.059,577.689z"/>
	<path d="M107.008,580.027h1.681l0.154,0.926h0.056c0.603-0.588,1.359-1.094,2.396-1.094c1.569,0,2.269,1.08,2.269,2.83v4.287
		h-2.059v-4.021c0-0.924-0.266-1.344-1.022-1.344c-0.561,0-0.924,0.252-1.415,0.729v4.637h-2.059V580.027z"/>
	<path d="M115.141,586.08l0.883-1.289c0.854,0.531,1.807,0.826,2.801,0.826c0.756,0,1.107-0.252,1.107-0.588
		c0-0.393-0.351-0.533-1.709-0.826c-1.891-0.406-2.647-1.094-2.647-2.172c0-1.289,1.219-2.172,3.194-2.172
		c1.247,0,2.283,0.49,3.011,0.953l-0.924,1.232c-0.7-0.42-1.499-0.658-2.269-0.658c-0.645,0-0.967,0.225-0.967,0.547
		c0,0.393,0.434,0.477,1.611,0.742c2.143,0.49,2.731,1.092,2.731,2.227c0,1.262-1.19,2.242-3.418,2.242
		C117.298,587.145,116.024,586.668,115.141,586.08z"/>
	<path d="M123.569,583.502c0-2.283,1.751-3.643,3.614-3.643c2.143,0,3.278,1.443,3.278,3.334c0,0.379-0.07,0.758-0.098,0.926h-4.734
		c0.196,1.008,0.938,1.457,2.073,1.457c0.63,0,1.176-0.17,1.793-0.49l0.686,1.246c-0.798,0.504-1.835,0.813-2.759,0.813
		C125.25,587.145,123.569,585.813,123.569,583.502z M125.656,582.732h2.97c-0.098-0.855-0.574-1.303-1.373-1.303
		C126.441,581.43,125.867,581.863,125.656,582.732z"/>
	<path d="M132.824,580.027h1.681l0.168,1.514h0.042c0.686-1.135,1.708-1.682,2.815-1.682c0.616,0,0.938,0.1,1.345,0.281l-0.42,1.723
		c-0.434-0.127-0.714-0.195-1.232-0.195c-0.854,0-1.751,0.447-2.339,1.693v3.615h-2.059V580.027z"/>
	<path d="M142.036,584.09v-2.451h-1.751v-1.525l1.849-0.086l0.267-2.129h1.695v2.129h2.941v1.611h-2.941v2.438
		c0,1.051,0.448,1.457,1.471,1.457c0.518,0,0.953-0.111,1.373-0.252l0.364,1.484c-0.616,0.182-1.345,0.379-2.269,0.379
		C142.82,587.145,142.036,585.912,142.036,584.09z"/>
	<path d="M148.965,581.82c0.967-0.434,1.499-1.064,1.555-1.945c-0.084,0.027-0.182,0.041-0.266,0.041
		c-0.756,0-1.289-0.518-1.289-1.289c0-0.854,0.575-1.414,1.345-1.414c1.051,0,1.639,0.84,1.639,2.24
		c0,1.527-0.813,2.719-2.438,3.461L148.965,581.82z M152.691,581.82c0.967-0.434,1.499-1.064,1.555-1.945
		c-0.084,0.027-0.182,0.041-0.266,0.041c-0.757,0-1.289-0.518-1.289-1.289c0-0.854,0.575-1.414,1.345-1.414
		c1.051,0,1.639,0.84,1.639,2.24c0,1.527-0.813,2.719-2.438,3.461L152.691,581.82z"/>
	<path d="M158.948,588.811c1.247-0.434,1.849-1.135,1.821-1.988c-0.056,0.014-0.098,0.014-0.154,0.014
		c-0.785,0-1.513-0.504-1.513-1.43c0-0.867,0.7-1.441,1.569-1.441c1.148,0,1.737,0.896,1.737,2.408c0,1.779-1.009,3.055-2.941,3.643
		L158.948,588.811z"/>
	<path d="M42.694,598.439h-2.788v-1.611h4.847v6.947h-2.059V598.439z M42.26,594.488c0-0.756,0.574-1.289,1.373-1.289
		s1.373,0.533,1.373,1.289c0,0.758-0.575,1.248-1.373,1.248S42.26,595.246,42.26,594.488z"/>
	<path d="M48.208,596.828h1.681l0.154,0.924h0.056c0.603-0.588,1.359-1.092,2.396-1.092c1.569,0,2.269,1.078,2.269,2.83v4.285
		h-2.059v-4.02c0-0.924-0.266-1.346-1.022-1.346c-0.56,0-0.924,0.254-1.415,0.729v4.637h-2.06V596.828z"/>
	<path d="M56.258,600.303c0-2.27,1.457-3.643,2.97-3.643c0.771,0,1.289,0.266,1.751,0.742h0.056l-0.098-1.078v-2.367h2.059v9.818
		h-1.681l-0.154-0.715h-0.042c-0.519,0.506-1.233,0.883-1.933,0.883C57.42,603.943,56.258,602.57,56.258,600.303z M60.937,601.619
		v-2.816c-0.378-0.336-0.756-0.461-1.163-0.461c-0.756,0-1.401,0.615-1.401,1.932c0,1.373,0.49,1.99,1.345,1.99
		C60.18,602.264,60.572,602.08,60.937,601.619z"/>
	<path d="M64.77,600.303c0-2.283,1.751-3.643,3.614-3.643c2.143,0,3.278,1.443,3.278,3.334c0,0.377-0.07,0.756-0.098,0.924h-4.734
		c0.196,1.01,0.938,1.457,2.073,1.457c0.63,0,1.176-0.168,1.793-0.49l0.686,1.246c-0.798,0.506-1.835,0.813-2.759,0.813
		C66.451,603.943,64.77,602.613,64.77,600.303z M66.857,599.531h2.97c-0.098-0.854-0.574-1.303-1.373-1.303
		C67.642,598.229,67.067,598.664,66.857,599.531z"/>
	<path d="M75.327,600.162l-2.255-3.334h2.213L76,597.949c0.21,0.393,0.49,0.799,0.728,1.189h0.056
		c0.182-0.391,0.392-0.813,0.574-1.189l0.617-1.121h2.157l-2.27,3.572l2.409,3.375h-2.213l-0.798-1.148
		c-0.252-0.393-0.546-0.813-0.799-1.205h-0.056c-0.21,0.393-0.435,0.799-0.645,1.205l-0.687,1.148h-2.157L75.327,600.162z"/>
	<path d="M83.377,597.781c0-0.926,0.658-1.654,1.625-1.654c0.967,0,1.625,0.729,1.625,1.654c0,0.924-0.658,1.639-1.625,1.639
		C84.035,599.42,83.377,598.705,83.377,597.781z M83.377,602.305c0-0.924,0.658-1.652,1.625-1.652c0.967,0,1.625,0.729,1.625,1.652
		c0,0.926-0.658,1.639-1.625,1.639C84.035,603.943,83.377,603.23,83.377,602.305z"/>
	<path d="M98.188,602.684l0.953-1.303c0.588,0.518,1.358,0.896,2.171,0.896c0.967,0,1.667-0.379,1.667-1.051
		c0-0.785-0.603-1.275-2.689-1.275v-1.457c1.751,0,2.396-0.475,2.396-1.189c0-0.617-0.504-0.98-1.317-0.98
		c-0.7,0-1.275,0.293-1.891,0.783l-1.037-1.26c0.869-0.701,1.877-1.135,3.026-1.135c1.933,0,3.278,0.883,3.278,2.438
		c0,0.924-0.63,1.568-1.695,1.975v0.057c1.121,0.293,1.989,1.021,1.989,2.172c0,1.652-1.653,2.59-3.53,2.59
		C99.98,603.943,98.874,603.439,98.188,602.684z"/>
	<path d="M108.548,605.611c1.247-0.436,1.849-1.135,1.821-1.99c-0.056,0.016-0.098,0.016-0.154,0.016
		c-0.785,0-1.513-0.506-1.513-1.43c0-0.869,0.7-1.443,1.569-1.443c1.148,0,1.737,0.896,1.737,2.41c0,1.779-1.009,3.053-2.941,3.643
		L108.548,605.611z"/>
	<path d="M39.809,613.627h1.681l0.154,0.926h0.056c0.603-0.588,1.359-1.094,2.396-1.094c1.569,0,2.269,1.08,2.269,2.83v4.287h-2.059
		v-4.021c0-0.924-0.266-1.344-1.022-1.344c-0.561,0-0.924,0.252-1.415,0.729v4.637h-2.059V613.627z"/>
	<path d="M47.858,617.102c0-2.311,1.709-3.643,3.544-3.643s3.544,1.332,3.544,3.643s-1.709,3.643-3.544,3.643
		S47.858,619.412,47.858,617.102z M52.831,617.102c0-1.205-0.476-1.975-1.429-1.975s-1.429,0.77-1.429,1.975
		s0.476,1.975,1.429,1.975S52.831,618.307,52.831,617.102z"/>
	<path d="M56.258,617.102c0-2.27,1.457-3.643,2.97-3.643c0.771,0,1.289,0.268,1.751,0.744h0.056l-0.098-1.08v-2.367h2.059v9.82
		h-1.681l-0.154-0.715h-0.042c-0.519,0.504-1.233,0.883-1.933,0.883C57.42,620.744,56.258,619.371,56.258,617.102z M60.937,618.418
		v-2.814c-0.378-0.336-0.756-0.463-1.163-0.463c-0.756,0-1.401,0.617-1.401,1.934c0,1.373,0.49,1.988,1.345,1.988
		C60.18,619.063,60.572,618.881,60.937,618.418z"/>
	<path d="M64.77,617.102c0-2.283,1.751-3.643,3.614-3.643c2.143,0,3.278,1.443,3.278,3.334c0,0.379-0.07,0.758-0.098,0.926h-4.734
		c0.196,1.008,0.938,1.457,2.073,1.457c0.63,0,1.176-0.17,1.793-0.49l0.686,1.246c-0.798,0.504-1.835,0.813-2.759,0.813
		C66.451,620.744,64.77,619.412,64.77,617.102z M66.857,616.332h2.97c-0.098-0.855-0.574-1.303-1.373-1.303
		C67.642,615.029,67.067,615.463,66.857,616.332z"/>
	<path d="M74.977,614.58c0-0.924,0.659-1.652,1.625-1.652c0.967,0,1.625,0.729,1.625,1.652c0,0.926-0.658,1.639-1.625,1.639
		C75.635,616.219,74.977,615.506,74.977,614.58z M74.977,619.105c0-0.926,0.659-1.654,1.625-1.654c0.967,0,1.625,0.729,1.625,1.654
		c0,0.924-0.658,1.639-1.625,1.639C75.635,620.744,74.977,620.029,74.977,619.105z"/>
	<path d="M92.463,620.715c0-0.994,0.14-1.512,0.14-2.395c0-0.49-0.406-1.008-1.919-1.037v-1.203
		c1.513-0.029,1.919-0.547,1.919-1.037c0-0.869-0.14-1.416-0.14-2.396c0-1.512,0.813-1.988,2.605-1.988h1.079v1.092h-0.574
		c-1.163,0-1.429,0.197-1.429,0.98c0,0.744,0.07,1.457,0.07,2.285c0,1.064-0.406,1.471-1.401,1.639v0.055
		c0.995,0.168,1.401,0.574,1.401,1.639c0,0.855-0.07,1.527-0.07,2.283c0,0.785,0.266,0.98,1.429,0.98h0.574v1.094h-1.079
		C93.275,622.705,92.463,622.229,92.463,620.715z"/>
	<path d="M56.37,633.902c0-2.283,1.751-3.643,3.614-3.643c2.143,0,3.278,1.443,3.278,3.334c0,0.377-0.07,0.756-0.098,0.924h-4.734
		c0.196,1.01,0.938,1.457,2.073,1.457c0.63,0,1.176-0.168,1.793-0.49l0.686,1.246c-0.798,0.506-1.835,0.813-2.759,0.813
		C58.051,637.543,56.37,636.213,56.37,633.902z M58.457,633.131h2.97c-0.098-0.854-0.574-1.303-1.373-1.303
		C59.242,631.828,58.667,632.264,58.457,633.131z"/>
	<path d="M66.885,634.658v-5.477H64.7v-1.625h4.245v7.186c0,0.854,0.546,1.135,1.134,1.135c0.322,0,0.659-0.057,1.079-0.225
		l0.462,1.514c-0.729,0.238-1.219,0.377-2.087,0.377C67.795,637.543,66.885,636.424,66.885,634.658z"/>
	<path d="M73.17,633.902c0-2.283,1.751-3.643,3.614-3.643c2.143,0,3.278,1.443,3.278,3.334c0,0.377-0.07,0.756-0.098,0.924h-4.734
		c0.196,1.01,0.938,1.457,2.073,1.457c0.63,0,1.176-0.168,1.793-0.49l0.686,1.246c-0.798,0.506-1.835,0.813-2.759,0.813
		C74.851,637.543,73.17,636.213,73.17,633.902z M75.257,633.131h2.97c-0.098-0.854-0.574-1.303-1.373-1.303
		C76.042,631.828,75.467,632.264,75.257,633.131z"/>
	<path d="M81.29,630.428h1.555l0.14,0.854h0.056c0.252-0.559,0.7-1.021,1.499-1.021c0.602,0,1.036,0.393,1.205,1.135
		c0.252-0.631,0.742-1.135,1.541-1.135c0.995,0,1.555,0.854,1.555,2.24v4.875h-1.961v-4.734c0-0.42-0.098-0.631-0.378-0.631
		c-0.252,0-0.434,0.225-0.63,0.674v4.691h-1.611v-4.734c0-0.42-0.126-0.631-0.392-0.631c-0.267,0-0.435,0.225-0.617,0.674v4.691
		H81.29V630.428z"/>
	<path d="M89.97,633.902c0-2.283,1.751-3.643,3.614-3.643c2.143,0,3.278,1.443,3.278,3.334c0,0.377-0.07,0.756-0.098,0.924h-4.734
		c0.196,1.01,0.938,1.457,2.073,1.457c0.63,0,1.176-0.168,1.793-0.49l0.686,1.246c-0.798,0.506-1.835,0.813-2.759,0.813
		C91.65,637.543,89.97,636.213,89.97,633.902z M92.057,633.131h2.97c-0.098-0.854-0.574-1.303-1.373-1.303
		C92.841,631.828,92.267,632.264,92.057,633.131z"/>
	<path d="M98.607,630.428h1.681l0.154,0.924h0.056c0.603-0.588,1.359-1.092,2.396-1.092c1.569,0,2.269,1.078,2.269,2.83v4.285
		h-2.059v-4.02c0-0.924-0.266-1.346-1.022-1.346c-0.56,0-0.924,0.254-1.415,0.729v4.637h-2.06V630.428z"/>
	<path d="M108.437,634.49v-2.451h-1.751v-1.527l1.849-0.084l0.267-2.129h1.695v2.129h2.941v1.611h-2.941v2.438
		c0,1.051,0.448,1.457,1.471,1.457c0.518,0,0.953-0.113,1.373-0.254l0.364,1.486c-0.616,0.182-1.345,0.377-2.269,0.377
		C109.221,637.543,108.437,636.311,108.437,634.49z"/>
	<path d="M116.977,631.381c0-0.926,0.658-1.654,1.625-1.654c0.967,0,1.625,0.729,1.625,1.654c0,0.924-0.658,1.639-1.625,1.639
		C117.635,633.02,116.977,632.305,116.977,631.381z M116.977,635.904c0-0.924,0.658-1.652,1.625-1.652
		c0.967,0,1.625,0.729,1.625,1.652c0,0.926-0.658,1.639-1.625,1.639C117.635,637.543,116.977,636.83,116.977,635.904z"/>
	<path d="M131.913,631.072c0-1.527,0.813-2.717,2.451-3.461l0.532,1.094c-0.966,0.447-1.499,1.064-1.568,1.961
		c0.098-0.027,0.196-0.043,0.294-0.043c0.742,0,1.274,0.506,1.274,1.275c0,0.855-0.56,1.414-1.345,1.414
		C132.516,633.313,131.913,632.486,131.913,631.072z M135.639,631.072c0-1.527,0.813-2.717,2.451-3.461l0.532,1.094
		c-0.966,0.447-1.499,1.064-1.569,1.961c0.098-0.027,0.196-0.043,0.294-0.043c0.742,0,1.274,0.506,1.274,1.275
		c0,0.855-0.56,1.414-1.345,1.414C136.241,633.313,135.639,632.486,135.639,631.072z"/>
	<path d="M143.493,632.039h-2.788v-1.611h4.847v6.947h-2.059V632.039z M143.059,628.088c0-0.756,0.574-1.289,1.373-1.289
		s1.373,0.533,1.373,1.289c0,0.758-0.575,1.248-1.373,1.248S143.059,628.846,143.059,628.088z"/>
	<path d="M149.007,630.428h1.681l0.154,0.924h0.056c0.603-0.588,1.359-1.092,2.396-1.092c1.569,0,2.269,1.078,2.269,2.83v4.285
		h-2.059v-4.02c0-0.924-0.266-1.346-1.022-1.346c-0.56,0-0.924,0.254-1.415,0.729v4.637h-2.06V630.428z"/>
	<path d="M157.407,630.428h1.681l0.154,0.701h0.042c0.56-0.506,1.331-0.869,2.073-0.869c1.737,0,2.788,1.387,2.788,3.529
		c0,2.381-1.457,3.754-3.012,3.754c-0.616,0-1.218-0.266-1.709-0.756h-0.056l0.098,1.135v2.031h-2.059V630.428z M162.029,633.818
		c0-1.248-0.406-1.877-1.274-1.877c-0.448,0-0.854,0.195-1.289,0.643v2.816c0.392,0.336,0.84,0.463,1.19,0.463
		C161.427,635.863,162.029,635.246,162.029,633.818z"/>
	<path d="M165.667,634.715v-4.287h2.059v4.02c0,0.926,0.238,1.346,1.008,1.346c0.519,0,0.883-0.182,1.359-0.799v-4.566h2.059v6.947
		h-1.681l-0.154-0.994h-0.056c-0.616,0.701-1.345,1.162-2.339,1.162C166.339,637.543,165.667,636.465,165.667,634.715z"/>
	<path d="M175.636,634.49v-2.451h-1.751v-1.527l1.849-0.084l0.267-2.129h1.695v2.129h2.941v1.611h-2.941v2.438
		c0,1.051,0.448,1.457,1.471,1.457c0.518,0,0.953-0.113,1.373-0.254l0.364,1.486c-0.616,0.182-1.345,0.377-2.269,0.377
		C176.42,637.543,175.636,636.311,175.636,634.49z"/>
	<path d="M182.564,632.221c0.967-0.434,1.499-1.064,1.555-1.947c-0.084,0.027-0.182,0.043-0.266,0.043
		c-0.756,0-1.289-0.52-1.289-1.289c0-0.855,0.575-1.416,1.345-1.416c1.051,0,1.639,0.842,1.639,2.242
		c0,1.527-0.813,2.717-2.438,3.459L182.564,632.221z M186.291,632.221c0.967-0.434,1.499-1.064,1.555-1.947
		c-0.084,0.027-0.182,0.043-0.266,0.043c-0.757,0-1.289-0.52-1.289-1.289c0-0.855,0.575-1.416,1.345-1.416
		c1.051,0,1.639,0.842,1.639,2.242c0,1.527-0.813,2.717-2.438,3.459L186.291,632.221z"/>
	<path d="M192.547,639.211c1.247-0.436,1.849-1.135,1.821-1.99c-0.056,0.016-0.098,0.016-0.154,0.016
		c-0.785,0-1.513-0.506-1.513-1.43c0-0.869,0.7-1.443,1.569-1.443c1.148,0,1.737,0.896,1.737,2.41c0,1.779-1.009,3.053-2.941,3.643
		L192.547,639.211z"/>
	<path d="M56.454,652.242c0-1.555,1.289-2.34,4.581-2.535c-0.07-0.631-0.546-1.008-1.485-1.008c-0.672,0-1.331,0.252-2.115,0.643
		l-0.729-1.344c0.953-0.547,2.059-0.939,3.25-0.939c1.947,0,3.138,1.01,3.138,3.139v3.979h-1.681l-0.154-0.785h-0.056
		c-0.7,0.533-1.569,0.953-2.465,0.953C57.336,654.344,56.454,653.418,56.454,652.242z M61.035,652.088v-1.148
		c-2.045,0.111-2.605,0.547-2.605,1.148c0,0.449,0.378,0.658,0.966,0.658C60.012,652.746,60.544,652.467,61.035,652.088z"/>
	<path d="M66.437,651.289v-2.451h-1.751v-1.525l1.849-0.086l0.266-2.129h1.695v2.129h2.941v1.611h-2.941v2.438
		c0,1.051,0.448,1.457,1.471,1.457c0.518,0,0.953-0.111,1.373-0.252l0.364,1.484c-0.616,0.182-1.345,0.379-2.269,0.379
		C67.221,654.344,66.437,653.111,66.437,651.289z"/>
	<path d="M74.837,651.289v-2.451h-1.751v-1.525l1.849-0.086l0.267-2.129h1.695v2.129h2.941v1.611h-2.941v2.438
		c0,1.051,0.448,1.457,1.471,1.457c0.518,0,0.953-0.111,1.373-0.252l0.364,1.484c-0.616,0.182-1.345,0.379-2.269,0.379
		C75.621,654.344,74.837,653.111,74.837,651.289z"/>
	<path d="M82.424,647.227h1.681l0.168,1.514h0.042c0.686-1.135,1.708-1.682,2.815-1.682c0.616,0,0.938,0.1,1.345,0.281l-0.42,1.723
		c-0.434-0.127-0.714-0.195-1.232-0.195c-0.854,0-1.751,0.447-2.339,1.693v3.615h-2.059V647.227z"/>
	<path d="M93.093,648.838h-2.788v-1.611h4.847v6.949h-2.059V648.838z M92.659,644.889c0-0.756,0.574-1.289,1.373-1.289
		s1.373,0.533,1.373,1.289s-0.575,1.246-1.373,1.246S92.659,645.645,92.659,644.889z"/>
	<path d="M100.443,653.418h-0.056l-0.168,0.758h-1.611v-9.82h2.06v2.41l-0.07,1.092h0.042c0.519-0.504,1.233-0.799,1.905-0.799
		c1.737,0,2.801,1.387,2.801,3.518c0,2.395-1.457,3.768-3.012,3.768C101.689,654.344,101.017,654.021,100.443,653.418z
		 M103.23,650.617c0-1.246-0.406-1.877-1.274-1.877c-0.448,0-0.854,0.195-1.289,0.645v2.816c0.392,0.336,0.84,0.461,1.205,0.461
		C102.628,652.662,103.23,652.047,103.23,650.617z"/>
	<path d="M106.868,651.514v-4.287h2.059v4.021c0,0.924,0.238,1.344,1.008,1.344c0.519,0,0.882-0.182,1.359-0.797v-4.568h2.059v6.949
		h-1.681l-0.154-0.994h-0.056c-0.616,0.699-1.345,1.162-2.339,1.162C107.54,654.344,106.868,653.266,106.868,651.514z"/>
	<path d="M116.836,651.289v-2.451h-1.751v-1.525l1.849-0.086l0.266-2.129h1.695v2.129h2.941v1.611h-2.941v2.438
		c0,1.051,0.448,1.457,1.471,1.457c0.518,0,0.953-0.111,1.373-0.252l0.364,1.484c-0.616,0.182-1.345,0.379-2.269,0.379
		C117.621,654.344,116.836,653.111,116.836,651.289z"/>
	<path d="M123.569,650.701c0-2.283,1.751-3.643,3.614-3.643c2.143,0,3.278,1.443,3.278,3.334c0,0.379-0.07,0.758-0.098,0.926h-4.734
		c0.196,1.008,0.938,1.457,2.073,1.457c0.63,0,1.176-0.17,1.793-0.49l0.686,1.246c-0.798,0.504-1.835,0.813-2.759,0.813
		C125.25,654.344,123.569,653.012,123.569,650.701z M125.656,649.932h2.97c-0.098-0.855-0.574-1.303-1.373-1.303
		C126.441,648.629,125.867,649.063,125.656,649.932z"/>
	<path d="M131.941,653.279l0.883-1.289c0.854,0.531,1.807,0.826,2.801,0.826c0.756,0,1.107-0.252,1.107-0.588
		c0-0.393-0.351-0.533-1.709-0.826c-1.891-0.406-2.647-1.094-2.647-2.172c0-1.289,1.219-2.172,3.194-2.172
		c1.247,0,2.283,0.49,3.011,0.953l-0.924,1.232c-0.7-0.42-1.499-0.658-2.269-0.658c-0.645,0-0.967,0.225-0.967,0.547
		c0,0.393,0.434,0.477,1.611,0.742c2.143,0.49,2.731,1.092,2.731,2.227c0,1.262-1.19,2.242-3.418,2.242
		C134.098,654.344,132.824,653.867,131.941,653.279z"/>
	<path d="M142.176,648.18c0-0.924,0.659-1.652,1.625-1.652c0.967,0,1.625,0.729,1.625,1.652c0,0.926-0.658,1.639-1.625,1.639
		C142.834,649.818,142.176,649.105,142.176,648.18z M142.176,652.705c0-0.926,0.659-1.654,1.625-1.654
		c0.967,0,1.625,0.729,1.625,1.654c0,0.924-0.658,1.639-1.625,1.639C142.834,654.344,142.176,653.629,142.176,652.705z"/>
	<path d="M159.662,654.314c0-0.994,0.14-1.512,0.14-2.395c0-0.49-0.406-1.008-1.919-1.037v-1.203
		c1.513-0.029,1.919-0.547,1.919-1.037c0-0.869-0.14-1.416-0.14-2.396c0-1.512,0.813-1.988,2.605-1.988h1.079v1.092h-0.574
		c-1.163,0-1.429,0.197-1.429,0.98c0,0.744,0.07,1.457,0.07,2.285c0,1.064-0.406,1.471-1.401,1.639v0.055
		c0.995,0.168,1.401,0.574,1.401,1.639c0,0.855-0.07,1.527-0.07,2.283c0,0.785,0.266,0.98,1.429,0.98h0.574v1.094h-1.079
		C160.475,656.305,159.662,655.828,159.662,654.314z"/>
	<path d="M74.837,668.09v-2.451h-1.751v-1.525l1.849-0.086l0.267-2.129h1.695v2.129h2.941v1.611h-2.941v2.438
		c0,1.051,0.448,1.457,1.471,1.457c0.518,0,0.953-0.111,1.373-0.252l0.364,1.484c-0.616,0.182-1.345,0.379-2.269,0.379
		C75.621,671.145,74.837,669.912,74.837,668.09z"/>
	<path d="M81.738,673.553l0.364-1.568c0.182,0.057,0.364,0.084,0.546,0.084c0.798,0,1.232-0.363,1.457-0.91l0.14-0.363l-3.012-6.768
		h2.045l1.163,2.984c0.252,0.658,0.476,1.359,0.7,2.088h0.056c0.182-0.688,0.42-1.4,0.63-2.088l1.022-2.984h1.947l-2.746,7.02
		c-0.672,1.75-1.499,2.646-3.25,2.646C82.396,673.693,82.032,673.637,81.738,673.553z"/>
	<path d="M90.208,664.027h1.681l0.154,0.701h0.042c0.56-0.504,1.331-0.869,2.073-0.869c1.737,0,2.788,1.387,2.788,3.531
		c0,2.381-1.457,3.754-3.012,3.754c-0.616,0-1.218-0.266-1.709-0.756h-0.056l0.098,1.133v2.031h-2.059V664.027z M94.83,667.418
		c0-1.246-0.406-1.877-1.274-1.877c-0.448,0-0.854,0.195-1.289,0.645v2.816c0.392,0.336,0.84,0.461,1.19,0.461
		C94.228,669.463,94.83,668.848,94.83,667.418z"/>
	<path d="M98.37,667.502c0-2.283,1.751-3.643,3.614-3.643c2.143,0,3.278,1.443,3.278,3.334c0,0.379-0.07,0.758-0.098,0.926h-4.734
		c0.196,1.008,0.938,1.457,2.073,1.457c0.63,0,1.176-0.17,1.793-0.49l0.686,1.246c-0.798,0.504-1.835,0.813-2.759,0.813
		C100.05,671.145,98.37,669.813,98.37,667.502z M100.457,666.732h2.97c-0.098-0.855-0.574-1.303-1.373-1.303
		C101.241,665.43,100.667,665.863,100.457,666.732z"/>
	<path d="M108.576,664.98c0-0.924,0.659-1.652,1.625-1.652c0.967,0,1.625,0.729,1.625,1.652c0,0.926-0.658,1.639-1.625,1.639
		C109.235,666.619,108.576,665.906,108.576,664.98z M108.576,669.506c0-0.926,0.659-1.654,1.625-1.654
		c0.967,0,1.625,0.729,1.625,1.654c0,0.924-0.658,1.639-1.625,1.639C109.235,671.145,108.576,670.43,108.576,669.506z"/>
	<path d="M123.513,664.672c0-1.525,0.813-2.717,2.451-3.459l0.533,1.092c-0.967,0.449-1.499,1.064-1.569,1.961
		c0.098-0.027,0.196-0.041,0.294-0.041c0.742,0,1.275,0.504,1.275,1.275c0,0.854-0.561,1.414-1.345,1.414
		C124.116,666.914,123.513,666.088,123.513,664.672z M127.239,664.672c0-1.525,0.813-2.717,2.451-3.459l0.532,1.092
		c-0.966,0.449-1.499,1.064-1.569,1.961c0.098-0.027,0.196-0.041,0.294-0.041c0.742,0,1.274,0.504,1.274,1.275
		c0,0.854-0.56,1.414-1.345,1.414C127.842,666.914,127.239,666.088,127.239,664.672z"/>
	<path d="M133.636,668.09v-2.451h-1.751v-1.525l1.849-0.086l0.266-2.129h1.695v2.129h2.941v1.611h-2.941v2.438
		c0,1.051,0.448,1.457,1.471,1.457c0.518,0,0.953-0.111,1.373-0.252l0.364,1.484c-0.616,0.182-1.345,0.379-2.269,0.379
		C134.42,671.145,133.636,669.912,133.636,668.09z"/>
	<path d="M140.369,667.502c0-2.283,1.751-3.643,3.614-3.643c2.143,0,3.278,1.443,3.278,3.334c0,0.379-0.07,0.758-0.098,0.926h-4.734
		c0.196,1.008,0.938,1.457,2.073,1.457c0.63,0,1.176-0.17,1.793-0.49l0.686,1.246c-0.798,0.504-1.835,0.813-2.759,0.813
		C142.05,671.145,140.369,669.813,140.369,667.502z M142.456,666.732h2.97c-0.098-0.855-0.574-1.303-1.373-1.303
		C143.241,665.43,142.667,665.863,142.456,666.732z"/>
	<path d="M150.926,667.361l-2.255-3.334h2.213l0.714,1.121c0.21,0.393,0.49,0.799,0.728,1.191h0.056
		c0.182-0.393,0.392-0.813,0.574-1.191l0.617-1.121h2.157l-2.269,3.572l2.409,3.377h-2.213l-0.798-1.148
		c-0.252-0.393-0.546-0.813-0.799-1.205h-0.056c-0.21,0.393-0.435,0.799-0.645,1.205l-0.687,1.148h-2.157L150.926,667.361z"/>
	<path d="M158.836,668.09v-2.451h-1.751v-1.525l1.849-0.086l0.267-2.129h1.695v2.129h2.941v1.611h-2.941v2.438
		c0,1.051,0.448,1.457,1.471,1.457c0.518,0,0.953-0.111,1.373-0.252l0.364,1.484c-0.616,0.182-1.345,0.379-2.269,0.379
		C159.62,671.145,158.836,669.912,158.836,668.09z"/>
	<path d="M165.765,665.82c0.967-0.434,1.499-1.064,1.555-1.945c-0.084,0.027-0.182,0.041-0.266,0.041
		c-0.756,0-1.289-0.518-1.289-1.289c0-0.854,0.575-1.414,1.345-1.414c1.051,0,1.639,0.84,1.639,2.24
		c0,1.527-0.813,2.719-2.438,3.461L165.765,665.82z M169.491,665.82c0.967-0.434,1.499-1.064,1.555-1.945
		c-0.084,0.027-0.182,0.041-0.266,0.041c-0.757,0-1.289-0.518-1.289-1.289c0-0.854,0.575-1.414,1.345-1.414
		c1.051,0,1.639,0.84,1.639,2.24c0,1.527-0.813,2.719-2.438,3.461L169.491,665.82z"/>
	<path d="M175.748,672.811c1.247-0.434,1.849-1.135,1.821-1.988c-0.056,0.014-0.098,0.014-0.154,0.014
		c-0.785,0-1.513-0.504-1.513-1.43c0-0.867,0.7-1.441,1.569-1.441c1.148,0,1.737,0.896,1.737,2.408c0,1.779-1.009,3.055-2.941,3.643
		L175.748,672.811z"/>
	<path d="M73.058,684.303c0-2.313,1.709-3.643,3.544-3.643s3.544,1.33,3.544,3.643c0,2.311-1.709,3.641-3.544,3.641
		S73.058,686.613,73.058,684.303z M78.03,684.303c0-1.205-0.476-1.977-1.429-1.977c-0.952,0-1.429,0.771-1.429,1.977
		c0,1.203,0.477,1.975,1.429,1.975C77.554,686.277,78.03,685.506,78.03,684.303z"/>
	<path d="M81.808,680.828h1.681l0.154,0.924h0.056c0.603-0.588,1.359-1.092,2.396-1.092c1.569,0,2.269,1.078,2.269,2.83v4.285
		h-2.059v-4.02c0-0.924-0.266-1.346-1.022-1.346c-0.56,0-0.924,0.254-1.415,0.729v4.637h-2.06V680.828z"/>
	<path d="M90.236,686.039h2.129v-5.66h-2.129v-1.736h6.332v1.736h-2.129v5.66h2.129v1.736h-6.332V686.039z"/>
	<path d="M98.607,680.828h1.681l0.154,0.924h0.056c0.603-0.588,1.359-1.092,2.396-1.092c1.569,0,2.269,1.078,2.269,2.83v4.285
		h-2.059v-4.02c0-0.924-0.266-1.346-1.022-1.346c-0.56,0-0.924,0.254-1.415,0.729v4.637h-2.06V680.828z"/>
	<path d="M107.008,680.828h1.681l0.154,0.701h0.042c0.56-0.506,1.331-0.869,2.073-0.869c1.737,0,2.788,1.387,2.788,3.529
		c0,2.381-1.457,3.754-3.012,3.754c-0.616,0-1.218-0.266-1.709-0.756h-0.056l0.098,1.135v2.031h-2.059V680.828z M111.63,684.219
		c0-1.248-0.406-1.877-1.274-1.877c-0.448,0-0.854,0.195-1.289,0.643v2.816c0.392,0.336,0.84,0.463,1.19,0.463
		C111.028,686.264,111.63,685.646,111.63,684.219z"/>
	<path d="M115.268,685.115v-4.287h2.059v4.02c0,0.926,0.238,1.346,1.008,1.346c0.519,0,0.883-0.182,1.359-0.799v-4.566h2.059v6.947
		h-1.681l-0.154-0.994h-0.056c-0.616,0.701-1.345,1.162-2.339,1.162C115.94,687.943,115.268,686.865,115.268,685.115z"/>
	<path d="M125.236,684.891v-2.451h-1.751v-1.527l1.849-0.084l0.267-2.129h1.695v2.129h2.941v1.611h-2.941v2.438
		c0,1.051,0.448,1.457,1.471,1.457c0.518,0,0.953-0.113,1.373-0.254l0.364,1.486c-0.616,0.182-1.345,0.377-2.269,0.377
		C126.021,687.943,125.236,686.711,125.236,684.891z"/>
	<path d="M133.776,681.781c0-0.926,0.658-1.654,1.625-1.654c0.967,0,1.625,0.729,1.625,1.654c0,0.924-0.658,1.639-1.625,1.639
		C134.435,683.42,133.776,682.705,133.776,681.781z M133.776,686.305c0-0.924,0.658-1.652,1.625-1.652
		c0.967,0,1.625,0.729,1.625,1.652c0,0.926-0.658,1.639-1.625,1.639C134.435,687.943,133.776,687.23,133.776,686.305z"/>
	<path d="M149.007,680.828h1.681l0.154,0.924h0.056c0.603-0.588,1.359-1.092,2.396-1.092c1.569,0,2.269,1.078,2.269,2.83v4.285
		h-2.059v-4.02c0-0.924-0.266-1.346-1.022-1.346c-0.56,0-0.924,0.254-1.415,0.729v4.637h-2.06V680.828z"/>
	<path d="M157.267,685.115v-4.287h2.059v4.02c0,0.926,0.238,1.346,1.008,1.346c0.519,0,0.882-0.182,1.359-0.799v-4.566h2.059v6.947
		h-1.681l-0.154-0.994h-0.056c-0.616,0.701-1.345,1.162-2.339,1.162C157.939,687.943,157.267,686.865,157.267,685.115z"/>
	<path d="M167.684,685.059v-5.477h-2.186v-1.625h4.245v7.186c0,0.854,0.546,1.135,1.134,1.135c0.322,0,0.659-0.057,1.079-0.225
		l0.462,1.514c-0.729,0.238-1.219,0.377-2.087,0.377C168.594,687.943,167.684,686.824,167.684,685.059z"/>
	<path d="M176.084,685.059v-5.477h-2.186v-1.625h4.245v7.186c0,0.854,0.546,1.135,1.134,1.135c0.322,0,0.659-0.057,1.079-0.225
		l0.462,1.514c-0.729,0.238-1.219,0.377-2.087,0.377C176.994,687.943,176.084,686.824,176.084,685.059z"/>
	<path d="M184.147,689.611c1.247-0.436,1.849-1.135,1.821-1.99c-0.056,0.016-0.098,0.016-0.154,0.016
		c-0.785,0-1.513-0.506-1.513-1.43c0-0.869,0.7-1.443,1.569-1.443c1.148,0,1.737,0.896,1.737,2.41c0,1.779-1.009,3.053-2.941,3.643
		L184.147,689.611z"/>
	<path d="M57.07,705.611h0.574c1.149,0,1.415-0.195,1.415-0.98c0-0.756-0.056-1.428-0.056-2.283c0-1.064,0.392-1.471,1.401-1.639
		v-0.055c-1.009-0.168-1.401-0.574-1.401-1.639c0-0.828,0.056-1.541,0.056-2.285c0-0.783-0.266-0.98-1.415-0.98H57.07v-1.092h1.079
		c1.793,0,2.605,0.477,2.605,1.988c0,0.98-0.154,1.527-0.154,2.396c0,0.49,0.406,1.008,1.933,1.037v1.203
		c-1.527,0.029-1.933,0.547-1.933,1.037c0,0.883,0.154,1.4,0.154,2.395c0,1.514-0.813,1.99-2.605,1.99H57.07V705.611z"/>
	<path d="M40.271,722.412h0.574c1.149,0,1.415-0.195,1.415-0.98c0-0.756-0.056-1.43-0.056-2.283c0-1.064,0.392-1.471,1.401-1.639
		v-0.057c-1.009-0.168-1.401-0.574-1.401-1.639c0-0.826,0.056-1.541,0.056-2.283c0-0.785-0.266-0.98-1.415-0.98h-0.574v-1.092h1.079
		c1.793,0,2.605,0.475,2.605,1.988c0,0.98-0.154,1.527-0.154,2.395c0,0.49,0.406,1.01,1.933,1.037v1.205
		c-1.527,0.027-1.933,0.547-1.933,1.037c0,0.881,0.154,1.4,0.154,2.395c0,1.514-0.813,1.988-2.605,1.988h-1.079V722.412z"/>
	<path d="M23.471,739.211h0.574c1.149,0,1.415-0.195,1.415-0.98c0-0.756-0.056-1.428-0.056-2.283c0-1.064,0.392-1.471,1.401-1.639
		v-0.055c-1.009-0.168-1.401-0.574-1.401-1.639c0-0.828,0.056-1.541,0.056-2.285c0-0.783-0.266-0.98-1.415-0.98h-0.574v-1.092h1.079
		c1.793,0,2.605,0.477,2.605,1.988c0,0.98-0.154,1.527-0.154,2.396c0,0.49,0.406,1.008,1.933,1.037v1.203
		C27.407,734.912,27,735.43,27,735.92c0,0.883,0.154,1.4,0.154,2.395c0,1.514-0.813,1.99-2.605,1.99h-1.079V739.211z"/>
</g>
<g>
	<rect x="277.5" y="690.5" fill="none" stroke="#000000" stroke-width="3" stroke-miterlimit="10" width="200" height="32"/>
</g>
<g>
	<rect x="277.5" y="642.5" fill="none" stroke="#000000" stroke-width="3" stroke-miterlimit="10" width="200" height="32"/>
</g>
<g>
	<rect x="277.5" y="594.5" fill="none" stroke="#000000" stroke-width="3" stroke-miterlimit="10" width="200" height="32"/>
</g>
<g>
	<rect x="277.5" y="546.5" fill="none" stroke="#000000" stroke-width="3" stroke-miterlimit="10" width="200" height="32"/>
</g>
<rect x="444.5" y="737.5" fill="none" stroke="#000000" stroke-width="3" stroke-miterlimit="10" width="33" height="32"/>
<g>
	<path d="M460.313,754.881h-4.176v-2.88h4.176v-4.32h2.977v4.32h4.176v2.88h-4.176v4.32h-2.977V754.881z"/>
</g>
</svg>
